<svg xmlns="http://www.w3.org/2000/svg" viewBox="0 0 161.14 28.15"><defs><style>.cls-1{fill:#fff;}</style></defs><title>Ресурс 2</title><g id="Слой_2" data-name="Слой 2"><g id="Header"><g id="Nascent_Logo" data-name="Nascent Logo"><path class="cls-1" d="M11.66,0C7.85,0,5.31,1.32,4,3.48H3.92v-3H0V27.64H4V12c0-5,3-8.32,7.15-8.32,4.29,0,6.52,2.89,6.52,8.21v15.8h4V11.25c0-8-4.65-11.25-9.93-11.25"/><path class="cls-1" d="M11.66,0C7.85,0,5.31,1.32,4,3.48H3.92v-3H0V27.64H4V12c0-5,3-8.32,7.15-8.32,4.29,0,6.52,2.89,6.52,8.21v15.8h4V11.25c0-8-4.65-11.25-9.93-11.25"/><path class="cls-1" d="M52.63,11.18c-2.64-.84-3.92-1.94-3.92-3.85a3.77,3.77,0,0,1,3.63-3.7,3.63,3.63,0,0,1,3.81,3.92h4C60,2.82,56.81,0,52.34,0a7.47,7.47,0,0,0-7.59,7.4c0,3.86,1.46,6,8.17,8.33,2.9,1,3.78,2.23,3.78,4.21a4.25,4.25,0,0,1-4.36,4.58c-2.64,0-4.37-2-4.4-4.91H44c.07,5.1,3.52,8.54,8.36,8.54a7.92,7.92,0,0,0,8.32-8.21c0-4.69-2.16-6.89-8-8.76"/><path class="cls-1" d="M52.63,11.18c-2.64-.84-3.92-1.94-3.92-3.85a3.77,3.77,0,0,1,3.63-3.7,3.63,3.63,0,0,1,3.81,3.92h4C60,2.82,56.81,0,52.34,0a7.47,7.47,0,0,0-7.59,7.4c0,3.86,1.46,6,8.17,8.33,2.9,1,3.78,2.23,3.78,4.21a4.25,4.25,0,0,1-4.36,4.58c-2.64,0-4.37-2-4.4-4.91H44c.07,5.1,3.52,8.54,8.36,8.54a7.92,7.92,0,0,0,8.32-8.21c0-4.69-2.16-6.89-8-8.76"/><path class="cls-1" d="M77,3.63a9.7,9.7,0,0,1,7.63,3.81h4.76A14,14,0,0,0,63,14.19c0,7.22,6.2,14,13.71,14a13.86,13.86,0,0,0,12.54-7.22H84.37a9.7,9.7,0,0,1-7.55,3.59c-5.57,0-9.86-5-9.86-10.7A10.21,10.21,0,0,1,77,3.63"/><path class="cls-1" d="M77,3.63a9.7,9.7,0,0,1,7.63,3.81h4.76A14,14,0,0,0,63,14.19c0,7.22,6.2,14,13.71,14a13.86,13.86,0,0,0,12.54-7.22H84.37a9.7,9.7,0,0,1-7.55,3.59c-5.57,0-9.86-5-9.86-10.7A10.21,10.21,0,0,1,77,3.63"/><path class="cls-1" d="M105.78,0A14.08,14.08,0,1,0,119,19.1h-4.25a9.69,9.69,0,0,1-9,5.42c-5.06,0-8.91-3.33-10-8.47h23.93a9.42,9.42,0,0,0,.15-2.16A14,14,0,0,0,105.78,0m-10,12.43c1-5.32,5-8.8,10-8.8,5.24,0,9.09,3.63,10.05,8.8Z"/><path class="cls-1" d="M105.78,0A14.08,14.08,0,1,0,119,19.1h-4.25a9.69,9.69,0,0,1-9,5.42c-5.06,0-8.91-3.33-10-8.47h23.93a9.42,9.42,0,0,0,.15-2.16A14,14,0,0,0,105.78,0m-10,12.43c1-5.32,5-8.8,10-8.8,5.24,0,9.09,3.63,10.05,8.8Z"/><path class="cls-1" d="M135.05,0c-3.82,0-6.35,1.32-7.63,3.48h-.11v-3h-3.92V27.64h4V12c0-5,3-8.32,7.15-8.32,4.28,0,6.52,2.89,6.52,8.21v15.8h4V11.25c0-8-4.65-11.25-9.93-11.25"/><path class="cls-1" d="M135.05,0c-3.82,0-6.35,1.32-7.63,3.48h-.11v-3h-3.92V27.64h4V12c0-5,3-8.32,7.15-8.32,4.28,0,6.52,2.89,6.52,8.21v15.8h4V11.25c0-8-4.65-11.25-9.93-11.25"/><polygon class="cls-1" points="146.78 0.51 146.78 4.14 151.98 4.14 151.98 27.64 155.94 27.64 155.94 4.14 161.15 4.14 161.15 0.51 146.78 0.51"/><polygon class="cls-1" points="146.78 0.51 146.78 4.14 151.98 4.14 151.98 27.64 155.94 27.64 155.94 4.14 161.15 4.14 161.15 0.51 146.78 0.51"/><polygon class="cls-1" points="17.65 27.64 22.49 27.64 25.21 23.66 32.21 13.27 37.12 5.65 37.19 5.65 37.19 16.02 37.19 19.65 37.19 27.64 41.15 27.64 41.15 0.52 36.28 0.52 17.65 27.64"/><polygon class="cls-1" points="17.65 27.64 22.49 27.64 25.21 23.66 32.21 13.27 37.12 5.65 37.19 5.65 37.19 16.02 37.19 19.65 37.19 27.64 41.15 27.64 41.15 0.52 36.28 0.52 17.65 27.64"/></g></g></g></svg>