<?xml version="1.0" standalone="no"?>
<!DOCTYPE svg PUBLIC "-//W3C//DTD SVG 20010904//EN"
 "http://www.w3.org/TR/2001/REC-SVG-20010904/DTD/svg10.dtd">
<svg version="1.0" xmlns="http://www.w3.org/2000/svg"
 width="192.000000pt" height="192.000000pt" viewBox="0 0 192.000000 192.000000"
 preserveAspectRatio="xMidYMid meet">
<metadata>
Created by potrace 1.11, written by Peter Selinger 2001-2013
</metadata>
<g transform="translate(0.000000,192.000000) scale(0.100000,-0.100000)"
fill="#000000" stroke="none">
<path d="M520 1453 c-64 -16 -110 -43 -145 -84 l-25 -31 0 56 0 56 -70 -2
c-39 -1 -71 -6 -72 -12 -2 -6 -3 -229 -3 -496 l1 -485 72 -3 72 -3 1 308 c1
169 1 311 0 315 -2 14 32 113 47 137 49 78 126 121 217 121 75 0 131 -25 173
-76 57 -69 62 -105 62 -473 l0 -332 92 3 92 3 225 337 c124 185 244 365 266
400 l40 63 3 -401 2 -402 70 0 c39 0 70 3 71 6 3 21 4 960 1 974 -3 14 -17 17
-91 17 l-87 0 -75 -111 c-41 -61 -79 -116 -84 -122 -6 -6 -28 -38 -50 -71
-127 -191 -319 -465 -323 -461 -2 3 -5 110 -6 238 -3 247 -10 296 -53 374 -43
76 -120 136 -208 159 -50 14 -158 13 -215 -2z"/>
</g>
</svg>
